<svg width="15" height="13" viewBox="0 0 15 13" fill="none" xmlns="http://www.w3.org/2000/svg">
<path d="M14.2376 7.00056L9.52175 12.1039C9.37024 12.2672 9.18084 12.3489 8.99145 12.3489C8.80205 12.3489 8.61266 12.2672 8.46115 12.1039C8.15812 11.7773 8.15812 11.267 8.46115 10.9403L11.8892 7.22511H0.828616C0.411952 7.22511 0.0710449 6.85767 0.0710449 6.40857C0.0710449 5.95947 0.411952 5.59203 0.828616 5.59203H11.8892L8.46115 1.87679C8.15812 1.55018 8.15812 1.03984 8.46115 0.713223C8.76418 0.386608 9.23766 0.386608 9.54069 0.713223L14.2566 5.81658C14.5407 6.16361 14.5407 6.69436 14.2376 7.00056Z" fill="black"/>
</svg>
